<?xml version="1.0" encoding="utf-8" standalone="no"?>
<!DOCTYPE svg PUBLIC "-//W3C//DTD SVG 1.1//EN"
  "http://www.w3.org/Graphics/SVG/1.1/DTD/svg11.dtd">
<svg xmlns:xlink="http://www.w3.org/1999/xlink" width="864pt" height="504pt" viewBox="0 0 864 504" xmlns="http://www.w3.org/2000/svg" version="1.1">
 <metadata>
  <rdf:RDF xmlns:dc="http://purl.org/dc/elements/1.1/" xmlns:cc="http://creativecommons.org/ns#" xmlns:rdf="http://www.w3.org/1999/02/22-rdf-syntax-ns#">
   <cc:Work>
    <dc:type rdf:resource="http://purl.org/dc/dcmitype/StillImage"/>
    <dc:date>2025-12-03T12:32:53.899302</dc:date>
    <dc:format>image/svg+xml</dc:format>
    <dc:creator>
     <cc:Agent>
      <dc:title>Matplotlib v3.10.1, https://matplotlib.org/</dc:title>
     </cc:Agent>
    </dc:creator>
   </cc:Work>
  </rdf:RDF>
 </metadata>
 <defs>
  <style type="text/css">*{stroke-linejoin: round; stroke-linecap: butt}</style>
 </defs>
 <g id="figure_1">
  <g id="patch_1">
   <path d="M 0 504 
L 864 504 
L 864 0 
L 0 0 
z
" style="fill: #ffffff"/>
  </g>
  <g id="axes_1">
   <g id="patch_2">
    <path d="M 39.94 461.93875 
L 853.180986 461.93875 
L 853.180986 40.88 
L 39.94 40.88 
z
" style="fill: #ffffff"/>
   </g>
   <g id="matplotlib.axis_1">
    <g id="xtick_1">
     <g id="line2d_1">
      <path d="M 39.94 461.93875 
L 39.94 40.88 
" clip-path="url(#p4972742c59)" style="fill: none; stroke: #dddddd; stroke-opacity: 0.2; stroke-width: 0.8; stroke-linecap: square"/>
     </g>
     <g id="line2d_2">
      <defs>
       <path id="m6e369c8596" d="M 0 0 
L 0 3.5 
" style="stroke: #666666; stroke-width: 0.8"/>
      </defs>
      <g>
       <use xlink:href="#m6e369c8596" x="39.94" y="461.93875" style="fill: #666666; stroke: #666666; stroke-width: 0.8"/>
      </g>
     </g>
     <g id="text_1">
      <!-- 0 -->
      <g style="fill: #666666" transform="translate(36.75875 476.537188) scale(0.1 -0.1)">
       <defs>
        <path id="DejaVuSans-30" d="M 2034 4250 
Q 1547 4250 1301 3770 
Q 1056 3291 1056 2328 
Q 1056 1369 1301 889 
Q 1547 409 2034 409 
Q 2525 409 2770 889 
Q 3016 1369 3016 2328 
Q 3016 3291 2770 3770 
Q 2525 4250 2034 4250 
z
M 2034 4750 
Q 2819 4750 3233 4129 
Q 3647 3509 3647 2328 
Q 3647 1150 3233 529 
Q 2819 -91 2034 -91 
Q 1250 -91 836 529 
Q 422 1150 422 2328 
Q 422 3509 836 4129 
Q 1250 4750 2034 4750 
z
" transform="scale(0.015625)"/>
       </defs>
       <use xlink:href="#DejaVuSans-30"/>
      </g>
     </g>
    </g>
    <g id="xtick_2">
     <g id="line2d_3">
      <path d="M 154.480984 461.93875 
L 154.480984 40.88 
" clip-path="url(#p4972742c59)" style="fill: none; stroke: #dddddd; stroke-opacity: 0.2; stroke-width: 0.8; stroke-linecap: square"/>
     </g>
     <g id="line2d_4">
      <g>
       <use xlink:href="#m6e369c8596" x="154.480984" y="461.93875" style="fill: #666666; stroke: #666666; stroke-width: 0.8"/>
      </g>
     </g>
     <g id="text_2">
      <!-- 100 -->
      <g style="fill: #666666" transform="translate(144.937234 476.537188) scale(0.1 -0.1)">
       <defs>
        <path id="DejaVuSans-31" d="M 794 531 
L 1825 531 
L 1825 4091 
L 703 3866 
L 703 4441 
L 1819 4666 
L 2450 4666 
L 2450 531 
L 3481 531 
L 3481 0 
L 794 0 
L 794 531 
z
" transform="scale(0.015625)"/>
       </defs>
       <use xlink:href="#DejaVuSans-31"/>
       <use xlink:href="#DejaVuSans-30" transform="translate(63.623047 0)"/>
       <use xlink:href="#DejaVuSans-30" transform="translate(127.246094 0)"/>
      </g>
     </g>
    </g>
    <g id="xtick_3">
     <g id="line2d_5">
      <path d="M 269.021968 461.93875 
L 269.021968 40.88 
" clip-path="url(#p4972742c59)" style="fill: none; stroke: #dddddd; stroke-opacity: 0.2; stroke-width: 0.8; stroke-linecap: square"/>
     </g>
     <g id="line2d_6">
      <g>
       <use xlink:href="#m6e369c8596" x="269.021968" y="461.93875" style="fill: #666666; stroke: #666666; stroke-width: 0.8"/>
      </g>
     </g>
     <g id="text_3">
      <!-- 200 -->
      <g style="fill: #666666" transform="translate(259.478218 476.537188) scale(0.1 -0.1)">
       <defs>
        <path id="DejaVuSans-32" d="M 1228 531 
L 3431 531 
L 3431 0 
L 469 0 
L 469 531 
Q 828 903 1448 1529 
Q 2069 2156 2228 2338 
Q 2531 2678 2651 2914 
Q 2772 3150 2772 3378 
Q 2772 3750 2511 3984 
Q 2250 4219 1831 4219 
Q 1534 4219 1204 4116 
Q 875 4013 500 3803 
L 500 4441 
Q 881 4594 1212 4672 
Q 1544 4750 1819 4750 
Q 2544 4750 2975 4387 
Q 3406 4025 3406 3419 
Q 3406 3131 3298 2873 
Q 3191 2616 2906 2266 
Q 2828 2175 2409 1742 
Q 1991 1309 1228 531 
z
" transform="scale(0.015625)"/>
       </defs>
       <use xlink:href="#DejaVuSans-32"/>
       <use xlink:href="#DejaVuSans-30" transform="translate(63.623047 0)"/>
       <use xlink:href="#DejaVuSans-30" transform="translate(127.246094 0)"/>
      </g>
     </g>
    </g>
    <g id="xtick_4">
     <g id="line2d_7">
      <path d="M 383.562952 461.93875 
L 383.562952 40.88 
" clip-path="url(#p4972742c59)" style="fill: none; stroke: #dddddd; stroke-opacity: 0.2; stroke-width: 0.8; stroke-linecap: square"/>
     </g>
     <g id="line2d_8">
      <g>
       <use xlink:href="#m6e369c8596" x="383.562952" y="461.93875" style="fill: #666666; stroke: #666666; stroke-width: 0.8"/>
      </g>
     </g>
     <g id="text_4">
      <!-- 300 -->
      <g style="fill: #666666" transform="translate(374.019202 476.537188) scale(0.1 -0.1)">
       <defs>
        <path id="DejaVuSans-33" d="M 2597 2516 
Q 3050 2419 3304 2112 
Q 3559 1806 3559 1356 
Q 3559 666 3084 287 
Q 2609 -91 1734 -91 
Q 1441 -91 1130 -33 
Q 819 25 488 141 
L 488 750 
Q 750 597 1062 519 
Q 1375 441 1716 441 
Q 2309 441 2620 675 
Q 2931 909 2931 1356 
Q 2931 1769 2642 2001 
Q 2353 2234 1838 2234 
L 1294 2234 
L 1294 2753 
L 1863 2753 
Q 2328 2753 2575 2939 
Q 2822 3125 2822 3475 
Q 2822 3834 2567 4026 
Q 2313 4219 1838 4219 
Q 1578 4219 1281 4162 
Q 984 4106 628 3988 
L 628 4550 
Q 988 4650 1302 4700 
Q 1616 4750 1894 4750 
Q 2613 4750 3031 4423 
Q 3450 4097 3450 3541 
Q 3450 3153 3228 2886 
Q 3006 2619 2597 2516 
z
" transform="scale(0.015625)"/>
       </defs>
       <use xlink:href="#DejaVuSans-33"/>
       <use xlink:href="#DejaVuSans-30" transform="translate(63.623047 0)"/>
       <use xlink:href="#DejaVuSans-30" transform="translate(127.246094 0)"/>
      </g>
     </g>
    </g>
    <g id="xtick_5">
     <g id="line2d_9">
      <path d="M 498.103936 461.93875 
L 498.103936 40.88 
" clip-path="url(#p4972742c59)" style="fill: none; stroke: #dddddd; stroke-opacity: 0.2; stroke-width: 0.8; stroke-linecap: square"/>
     </g>
     <g id="line2d_10">
      <g>
       <use xlink:href="#m6e369c8596" x="498.103936" y="461.93875" style="fill: #666666; stroke: #666666; stroke-width: 0.8"/>
      </g>
     </g>
     <g id="text_5">
      <!-- 400 -->
      <g style="fill: #666666" transform="translate(488.560186 476.537188) scale(0.1 -0.1)">
       <defs>
        <path id="DejaVuSans-34" d="M 2419 4116 
L 825 1625 
L 2419 1625 
L 2419 4116 
z
M 2253 4666 
L 3047 4666 
L 3047 1625 
L 3713 1625 
L 3713 1100 
L 3047 1100 
L 3047 0 
L 2419 0 
L 2419 1100 
L 313 1100 
L 313 1709 
L 2253 4666 
z
" transform="scale(0.015625)"/>
       </defs>
       <use xlink:href="#DejaVuSans-34"/>
       <use xlink:href="#DejaVuSans-30" transform="translate(63.623047 0)"/>
       <use xlink:href="#DejaVuSans-30" transform="translate(127.246094 0)"/>
      </g>
     </g>
    </g>
    <g id="xtick_6">
     <g id="line2d_11">
      <path d="M 612.64492 461.93875 
L 612.64492 40.88 
" clip-path="url(#p4972742c59)" style="fill: none; stroke: #dddddd; stroke-opacity: 0.2; stroke-width: 0.8; stroke-linecap: square"/>
     </g>
     <g id="line2d_12">
      <g>
       <use xlink:href="#m6e369c8596" x="612.64492" y="461.93875" style="fill: #666666; stroke: #666666; stroke-width: 0.8"/>
      </g>
     </g>
     <g id="text_6">
      <!-- 500 -->
      <g style="fill: #666666" transform="translate(603.10117 476.537188) scale(0.1 -0.1)">
       <defs>
        <path id="DejaVuSans-35" d="M 691 4666 
L 3169 4666 
L 3169 4134 
L 1269 4134 
L 1269 2991 
Q 1406 3038 1543 3061 
Q 1681 3084 1819 3084 
Q 2600 3084 3056 2656 
Q 3513 2228 3513 1497 
Q 3513 744 3044 326 
Q 2575 -91 1722 -91 
Q 1428 -91 1123 -41 
Q 819 9 494 109 
L 494 744 
Q 775 591 1075 516 
Q 1375 441 1709 441 
Q 2250 441 2565 725 
Q 2881 1009 2881 1497 
Q 2881 1984 2565 2268 
Q 2250 2553 1709 2553 
Q 1456 2553 1204 2497 
Q 953 2441 691 2322 
L 691 4666 
z
" transform="scale(0.015625)"/>
       </defs>
       <use xlink:href="#DejaVuSans-35"/>
       <use xlink:href="#DejaVuSans-30" transform="translate(63.623047 0)"/>
       <use xlink:href="#DejaVuSans-30" transform="translate(127.246094 0)"/>
      </g>
     </g>
    </g>
    <g id="xtick_7">
     <g id="line2d_13">
      <path d="M 727.185904 461.93875 
L 727.185904 40.88 
" clip-path="url(#p4972742c59)" style="fill: none; stroke: #dddddd; stroke-opacity: 0.2; stroke-width: 0.8; stroke-linecap: square"/>
     </g>
     <g id="line2d_14">
      <g>
       <use xlink:href="#m6e369c8596" x="727.185904" y="461.93875" style="fill: #666666; stroke: #666666; stroke-width: 0.8"/>
      </g>
     </g>
     <g id="text_7">
      <!-- 600 -->
      <g style="fill: #666666" transform="translate(717.642154 476.537188) scale(0.1 -0.1)">
       <defs>
        <path id="DejaVuSans-36" d="M 2113 2584 
Q 1688 2584 1439 2293 
Q 1191 2003 1191 1497 
Q 1191 994 1439 701 
Q 1688 409 2113 409 
Q 2538 409 2786 701 
Q 3034 994 3034 1497 
Q 3034 2003 2786 2293 
Q 2538 2584 2113 2584 
z
M 3366 4563 
L 3366 3988 
Q 3128 4100 2886 4159 
Q 2644 4219 2406 4219 
Q 1781 4219 1451 3797 
Q 1122 3375 1075 2522 
Q 1259 2794 1537 2939 
Q 1816 3084 2150 3084 
Q 2853 3084 3261 2657 
Q 3669 2231 3669 1497 
Q 3669 778 3244 343 
Q 2819 -91 2113 -91 
Q 1303 -91 875 529 
Q 447 1150 447 2328 
Q 447 3434 972 4092 
Q 1497 4750 2381 4750 
Q 2619 4750 2861 4703 
Q 3103 4656 3366 4563 
z
" transform="scale(0.015625)"/>
       </defs>
       <use xlink:href="#DejaVuSans-36"/>
       <use xlink:href="#DejaVuSans-30" transform="translate(63.623047 0)"/>
       <use xlink:href="#DejaVuSans-30" transform="translate(127.246094 0)"/>
      </g>
     </g>
    </g>
    <g id="xtick_8">
     <g id="line2d_15">
      <path d="M 841.726888 461.93875 
L 841.726888 40.88 
" clip-path="url(#p4972742c59)" style="fill: none; stroke: #dddddd; stroke-opacity: 0.2; stroke-width: 0.8; stroke-linecap: square"/>
     </g>
     <g id="line2d_16">
      <g>
       <use xlink:href="#m6e369c8596" x="841.726888" y="461.93875" style="fill: #666666; stroke: #666666; stroke-width: 0.8"/>
      </g>
     </g>
     <g id="text_8">
      <!-- 700 -->
      <g style="fill: #666666" transform="translate(832.183138 476.537188) scale(0.1 -0.1)">
       <defs>
        <path id="DejaVuSans-37" d="M 525 4666 
L 3525 4666 
L 3525 4397 
L 1831 0 
L 1172 0 
L 2766 4134 
L 525 4134 
L 525 4666 
z
" transform="scale(0.015625)"/>
       </defs>
       <use xlink:href="#DejaVuSans-37"/>
       <use xlink:href="#DejaVuSans-30" transform="translate(63.623047 0)"/>
       <use xlink:href="#DejaVuSans-30" transform="translate(127.246094 0)"/>
      </g>
     </g>
    </g>
    <g id="text_9">
     <!-- train/global_step -->
     <g style="fill: #666666" transform="translate(769.405986 490.215312) scale(0.1 -0.1)">
      <defs>
       <path id="DejaVuSans-74" d="M 1172 4494 
L 1172 3500 
L 2356 3500 
L 2356 3053 
L 1172 3053 
L 1172 1153 
Q 1172 725 1289 603 
Q 1406 481 1766 481 
L 2356 481 
L 2356 0 
L 1766 0 
Q 1100 0 847 248 
Q 594 497 594 1153 
L 594 3053 
L 172 3053 
L 172 3500 
L 594 3500 
L 594 4494 
L 1172 4494 
z
" transform="scale(0.015625)"/>
       <path id="DejaVuSans-72" d="M 2631 2963 
Q 2534 3019 2420 3045 
Q 2306 3072 2169 3072 
Q 1681 3072 1420 2755 
Q 1159 2438 1159 1844 
L 1159 0 
L 581 0 
L 581 3500 
L 1159 3500 
L 1159 2956 
Q 1341 3275 1631 3429 
Q 1922 3584 2338 3584 
Q 2397 3584 2469 3576 
Q 2541 3569 2628 3553 
L 2631 2963 
z
" transform="scale(0.015625)"/>
       <path id="DejaVuSans-61" d="M 2194 1759 
Q 1497 1759 1228 1600 
Q 959 1441 959 1056 
Q 959 750 1161 570 
Q 1363 391 1709 391 
Q 2188 391 2477 730 
Q 2766 1069 2766 1631 
L 2766 1759 
L 2194 1759 
z
M 3341 1997 
L 3341 0 
L 2766 0 
L 2766 531 
Q 2569 213 2275 61 
Q 1981 -91 1556 -91 
Q 1019 -91 701 211 
Q 384 513 384 1019 
Q 384 1609 779 1909 
Q 1175 2209 1959 2209 
L 2766 2209 
L 2766 2266 
Q 2766 2663 2505 2880 
Q 2244 3097 1772 3097 
Q 1472 3097 1187 3025 
Q 903 2953 641 2809 
L 641 3341 
Q 956 3463 1253 3523 
Q 1550 3584 1831 3584 
Q 2591 3584 2966 3190 
Q 3341 2797 3341 1997 
z
" transform="scale(0.015625)"/>
       <path id="DejaVuSans-69" d="M 603 3500 
L 1178 3500 
L 1178 0 
L 603 0 
L 603 3500 
z
M 603 4863 
L 1178 4863 
L 1178 4134 
L 603 4134 
L 603 4863 
z
" transform="scale(0.015625)"/>
       <path id="DejaVuSans-6e" d="M 3513 2113 
L 3513 0 
L 2938 0 
L 2938 2094 
Q 2938 2591 2744 2837 
Q 2550 3084 2163 3084 
Q 1697 3084 1428 2787 
Q 1159 2491 1159 1978 
L 1159 0 
L 581 0 
L 581 3500 
L 1159 3500 
L 1159 2956 
Q 1366 3272 1645 3428 
Q 1925 3584 2291 3584 
Q 2894 3584 3203 3211 
Q 3513 2838 3513 2113 
z
" transform="scale(0.015625)"/>
       <path id="DejaVuSans-2f" d="M 1625 4666 
L 2156 4666 
L 531 -594 
L 0 -594 
L 1625 4666 
z
" transform="scale(0.015625)"/>
       <path id="DejaVuSans-67" d="M 2906 1791 
Q 2906 2416 2648 2759 
Q 2391 3103 1925 3103 
Q 1463 3103 1205 2759 
Q 947 2416 947 1791 
Q 947 1169 1205 825 
Q 1463 481 1925 481 
Q 2391 481 2648 825 
Q 2906 1169 2906 1791 
z
M 3481 434 
Q 3481 -459 3084 -895 
Q 2688 -1331 1869 -1331 
Q 1566 -1331 1297 -1286 
Q 1028 -1241 775 -1147 
L 775 -588 
Q 1028 -725 1275 -790 
Q 1522 -856 1778 -856 
Q 2344 -856 2625 -561 
Q 2906 -266 2906 331 
L 2906 616 
Q 2728 306 2450 153 
Q 2172 0 1784 0 
Q 1141 0 747 490 
Q 353 981 353 1791 
Q 353 2603 747 3093 
Q 1141 3584 1784 3584 
Q 2172 3584 2450 3431 
Q 2728 3278 2906 2969 
L 2906 3500 
L 3481 3500 
L 3481 434 
z
" transform="scale(0.015625)"/>
       <path id="DejaVuSans-6c" d="M 603 4863 
L 1178 4863 
L 1178 0 
L 603 0 
L 603 4863 
z
" transform="scale(0.015625)"/>
       <path id="DejaVuSans-6f" d="M 1959 3097 
Q 1497 3097 1228 2736 
Q 959 2375 959 1747 
Q 959 1119 1226 758 
Q 1494 397 1959 397 
Q 2419 397 2687 759 
Q 2956 1122 2956 1747 
Q 2956 2369 2687 2733 
Q 2419 3097 1959 3097 
z
M 1959 3584 
Q 2709 3584 3137 3096 
Q 3566 2609 3566 1747 
Q 3566 888 3137 398 
Q 2709 -91 1959 -91 
Q 1206 -91 779 398 
Q 353 888 353 1747 
Q 353 2609 779 3096 
Q 1206 3584 1959 3584 
z
" transform="scale(0.015625)"/>
       <path id="DejaVuSans-62" d="M 3116 1747 
Q 3116 2381 2855 2742 
Q 2594 3103 2138 3103 
Q 1681 3103 1420 2742 
Q 1159 2381 1159 1747 
Q 1159 1113 1420 752 
Q 1681 391 2138 391 
Q 2594 391 2855 752 
Q 3116 1113 3116 1747 
z
M 1159 2969 
Q 1341 3281 1617 3432 
Q 1894 3584 2278 3584 
Q 2916 3584 3314 3078 
Q 3713 2572 3713 1747 
Q 3713 922 3314 415 
Q 2916 -91 2278 -91 
Q 1894 -91 1617 61 
Q 1341 213 1159 525 
L 1159 0 
L 581 0 
L 581 4863 
L 1159 4863 
L 1159 2969 
z
" transform="scale(0.015625)"/>
       <path id="DejaVuSans-5f" d="M 3263 -1063 
L 3263 -1509 
L -63 -1509 
L -63 -1063 
L 3263 -1063 
z
" transform="scale(0.015625)"/>
       <path id="DejaVuSans-73" d="M 2834 3397 
L 2834 2853 
Q 2591 2978 2328 3040 
Q 2066 3103 1784 3103 
Q 1356 3103 1142 2972 
Q 928 2841 928 2578 
Q 928 2378 1081 2264 
Q 1234 2150 1697 2047 
L 1894 2003 
Q 2506 1872 2764 1633 
Q 3022 1394 3022 966 
Q 3022 478 2636 193 
Q 2250 -91 1575 -91 
Q 1294 -91 989 -36 
Q 684 19 347 128 
L 347 722 
Q 666 556 975 473 
Q 1284 391 1588 391 
Q 1994 391 2212 530 
Q 2431 669 2431 922 
Q 2431 1156 2273 1281 
Q 2116 1406 1581 1522 
L 1381 1569 
Q 847 1681 609 1914 
Q 372 2147 372 2553 
Q 372 3047 722 3315 
Q 1072 3584 1716 3584 
Q 2034 3584 2315 3537 
Q 2597 3491 2834 3397 
z
" transform="scale(0.015625)"/>
       <path id="DejaVuSans-65" d="M 3597 1894 
L 3597 1613 
L 953 1613 
Q 991 1019 1311 708 
Q 1631 397 2203 397 
Q 2534 397 2845 478 
Q 3156 559 3463 722 
L 3463 178 
Q 3153 47 2828 -22 
Q 2503 -91 2169 -91 
Q 1331 -91 842 396 
Q 353 884 353 1716 
Q 353 2575 817 3079 
Q 1281 3584 2069 3584 
Q 2775 3584 3186 3129 
Q 3597 2675 3597 1894 
z
M 3022 2063 
Q 3016 2534 2758 2815 
Q 2500 3097 2075 3097 
Q 1594 3097 1305 2825 
Q 1016 2553 972 2059 
L 3022 2063 
z
" transform="scale(0.015625)"/>
       <path id="DejaVuSans-70" d="M 1159 525 
L 1159 -1331 
L 581 -1331 
L 581 3500 
L 1159 3500 
L 1159 2969 
Q 1341 3281 1617 3432 
Q 1894 3584 2278 3584 
Q 2916 3584 3314 3078 
Q 3713 2572 3713 1747 
Q 3713 922 3314 415 
Q 2916 -91 2278 -91 
Q 1894 -91 1617 61 
Q 1341 213 1159 525 
z
M 3116 1747 
Q 3116 2381 2855 2742 
Q 2594 3103 2138 3103 
Q 1681 3103 1420 2742 
Q 1159 2381 1159 1747 
Q 1159 1113 1420 752 
Q 1681 391 2138 391 
Q 2594 391 2855 752 
Q 3116 1113 3116 1747 
z
" transform="scale(0.015625)"/>
      </defs>
      <use xlink:href="#DejaVuSans-74"/>
      <use xlink:href="#DejaVuSans-72" transform="translate(39.208984 0)"/>
      <use xlink:href="#DejaVuSans-61" transform="translate(80.322266 0)"/>
      <use xlink:href="#DejaVuSans-69" transform="translate(141.601562 0)"/>
      <use xlink:href="#DejaVuSans-6e" transform="translate(169.384766 0)"/>
      <use xlink:href="#DejaVuSans-2f" transform="translate(232.763672 0)"/>
      <use xlink:href="#DejaVuSans-67" transform="translate(266.455078 0)"/>
      <use xlink:href="#DejaVuSans-6c" transform="translate(329.931641 0)"/>
      <use xlink:href="#DejaVuSans-6f" transform="translate(357.714844 0)"/>
      <use xlink:href="#DejaVuSans-62" transform="translate(418.896484 0)"/>
      <use xlink:href="#DejaVuSans-61" transform="translate(482.373047 0)"/>
      <use xlink:href="#DejaVuSans-6c" transform="translate(543.652344 0)"/>
      <use xlink:href="#DejaVuSans-5f" transform="translate(571.435547 0)"/>
      <use xlink:href="#DejaVuSans-73" transform="translate(621.435547 0)"/>
      <use xlink:href="#DejaVuSans-74" transform="translate(673.535156 0)"/>
      <use xlink:href="#DejaVuSans-65" transform="translate(712.744141 0)"/>
      <use xlink:href="#DejaVuSans-70" transform="translate(774.267578 0)"/>
     </g>
    </g>
   </g>
   <g id="matplotlib.axis_2">
    <g id="ytick_1">
     <g id="line2d_17">
      <path d="M 39.94 438.508321 
L 853.180986 438.508321 
" clip-path="url(#p4972742c59)" style="fill: none; stroke: #dddddd; stroke-opacity: 0.2; stroke-width: 0.8; stroke-linecap: square"/>
     </g>
     <g id="line2d_18">
      <defs>
       <path id="m1ba5d1acf0" d="M 0 0 
L -3.5 0 
" style="stroke: #666666; stroke-width: 0.8"/>
      </defs>
      <g>
       <use xlink:href="#m1ba5d1acf0" x="39.94" y="438.508321" style="fill: #666666; stroke: #666666; stroke-width: 0.8"/>
      </g>
     </g>
     <g id="text_10">
      <!-- 0.75 -->
      <g style="fill: #666666" transform="translate(10.674375 442.30754) scale(0.1 -0.1)">
       <defs>
        <path id="DejaVuSans-2e" d="M 684 794 
L 1344 794 
L 1344 0 
L 684 0 
L 684 794 
z
" transform="scale(0.015625)"/>
       </defs>
       <use xlink:href="#DejaVuSans-30"/>
       <use xlink:href="#DejaVuSans-2e" transform="translate(63.623047 0)"/>
       <use xlink:href="#DejaVuSans-37" transform="translate(95.410156 0)"/>
       <use xlink:href="#DejaVuSans-35" transform="translate(159.033203 0)"/>
      </g>
     </g>
    </g>
    <g id="ytick_2">
     <g id="line2d_19">
      <path d="M 39.94 387.595176 
L 853.180986 387.595176 
" clip-path="url(#p4972742c59)" style="fill: none; stroke: #dddddd; stroke-opacity: 0.2; stroke-width: 0.8; stroke-linecap: square"/>
     </g>
     <g id="line2d_20">
      <g>
       <use xlink:href="#m1ba5d1acf0" x="39.94" y="387.595176" style="fill: #666666; stroke: #666666; stroke-width: 0.8"/>
      </g>
     </g>
     <g id="text_11">
      <!-- 1.00 -->
      <g style="fill: #666666" transform="translate(10.674375 391.394394) scale(0.1 -0.1)">
       <use xlink:href="#DejaVuSans-31"/>
       <use xlink:href="#DejaVuSans-2e" transform="translate(63.623047 0)"/>
       <use xlink:href="#DejaVuSans-30" transform="translate(95.410156 0)"/>
       <use xlink:href="#DejaVuSans-30" transform="translate(159.033203 0)"/>
      </g>
     </g>
    </g>
    <g id="ytick_3">
     <g id="line2d_21">
      <path d="M 39.94 336.68203 
L 853.180986 336.68203 
" clip-path="url(#p4972742c59)" style="fill: none; stroke: #dddddd; stroke-opacity: 0.2; stroke-width: 0.8; stroke-linecap: square"/>
     </g>
     <g id="line2d_22">
      <g>
       <use xlink:href="#m1ba5d1acf0" x="39.94" y="336.68203" style="fill: #666666; stroke: #666666; stroke-width: 0.8"/>
      </g>
     </g>
     <g id="text_12">
      <!-- 1.25 -->
      <g style="fill: #666666" transform="translate(10.674375 340.481249) scale(0.1 -0.1)">
       <use xlink:href="#DejaVuSans-31"/>
       <use xlink:href="#DejaVuSans-2e" transform="translate(63.623047 0)"/>
       <use xlink:href="#DejaVuSans-32" transform="translate(95.410156 0)"/>
       <use xlink:href="#DejaVuSans-35" transform="translate(159.033203 0)"/>
      </g>
     </g>
    </g>
    <g id="ytick_4">
     <g id="line2d_23">
      <path d="M 39.94 285.768884 
L 853.180986 285.768884 
" clip-path="url(#p4972742c59)" style="fill: none; stroke: #dddddd; stroke-opacity: 0.2; stroke-width: 0.8; stroke-linecap: square"/>
     </g>
     <g id="line2d_24">
      <g>
       <use xlink:href="#m1ba5d1acf0" x="39.94" y="285.768884" style="fill: #666666; stroke: #666666; stroke-width: 0.8"/>
      </g>
     </g>
     <g id="text_13">
      <!-- 1.50 -->
      <g style="fill: #666666" transform="translate(10.674375 289.568103) scale(0.1 -0.1)">
       <use xlink:href="#DejaVuSans-31"/>
       <use xlink:href="#DejaVuSans-2e" transform="translate(63.623047 0)"/>
       <use xlink:href="#DejaVuSans-35" transform="translate(95.410156 0)"/>
       <use xlink:href="#DejaVuSans-30" transform="translate(159.033203 0)"/>
      </g>
     </g>
    </g>
    <g id="ytick_5">
     <g id="line2d_25">
      <path d="M 39.94 234.855739 
L 853.180986 234.855739 
" clip-path="url(#p4972742c59)" style="fill: none; stroke: #dddddd; stroke-opacity: 0.2; stroke-width: 0.8; stroke-linecap: square"/>
     </g>
     <g id="line2d_26">
      <g>
       <use xlink:href="#m1ba5d1acf0" x="39.94" y="234.855739" style="fill: #666666; stroke: #666666; stroke-width: 0.8"/>
      </g>
     </g>
     <g id="text_14">
      <!-- 1.75 -->
      <g style="fill: #666666" transform="translate(10.674375 238.654958) scale(0.1 -0.1)">
       <use xlink:href="#DejaVuSans-31"/>
       <use xlink:href="#DejaVuSans-2e" transform="translate(63.623047 0)"/>
       <use xlink:href="#DejaVuSans-37" transform="translate(95.410156 0)"/>
       <use xlink:href="#DejaVuSans-35" transform="translate(159.033203 0)"/>
      </g>
     </g>
    </g>
    <g id="ytick_6">
     <g id="line2d_27">
      <path d="M 39.94 183.942593 
L 853.180986 183.942593 
" clip-path="url(#p4972742c59)" style="fill: none; stroke: #dddddd; stroke-opacity: 0.2; stroke-width: 0.8; stroke-linecap: square"/>
     </g>
     <g id="line2d_28">
      <g>
       <use xlink:href="#m1ba5d1acf0" x="39.94" y="183.942593" style="fill: #666666; stroke: #666666; stroke-width: 0.8"/>
      </g>
     </g>
     <g id="text_15">
      <!-- 2.00 -->
      <g style="fill: #666666" transform="translate(10.674375 187.741812) scale(0.1 -0.1)">
       <use xlink:href="#DejaVuSans-32"/>
       <use xlink:href="#DejaVuSans-2e" transform="translate(63.623047 0)"/>
       <use xlink:href="#DejaVuSans-30" transform="translate(95.410156 0)"/>
       <use xlink:href="#DejaVuSans-30" transform="translate(159.033203 0)"/>
      </g>
     </g>
    </g>
    <g id="ytick_7">
     <g id="line2d_29">
      <path d="M 39.94 133.029448 
L 853.180986 133.029448 
" clip-path="url(#p4972742c59)" style="fill: none; stroke: #dddddd; stroke-opacity: 0.2; stroke-width: 0.8; stroke-linecap: square"/>
     </g>
     <g id="line2d_30">
      <g>
       <use xlink:href="#m1ba5d1acf0" x="39.94" y="133.029448" style="fill: #666666; stroke: #666666; stroke-width: 0.8"/>
      </g>
     </g>
     <g id="text_16">
      <!-- 2.25 -->
      <g style="fill: #666666" transform="translate(10.674375 136.828666) scale(0.1 -0.1)">
       <use xlink:href="#DejaVuSans-32"/>
       <use xlink:href="#DejaVuSans-2e" transform="translate(63.623047 0)"/>
       <use xlink:href="#DejaVuSans-32" transform="translate(95.410156 0)"/>
       <use xlink:href="#DejaVuSans-35" transform="translate(159.033203 0)"/>
      </g>
     </g>
    </g>
    <g id="ytick_8">
     <g id="line2d_31">
      <path d="M 39.94 82.116302 
L 853.180986 82.116302 
" clip-path="url(#p4972742c59)" style="fill: none; stroke: #dddddd; stroke-opacity: 0.2; stroke-width: 0.8; stroke-linecap: square"/>
     </g>
     <g id="line2d_32">
      <g>
       <use xlink:href="#m1ba5d1acf0" x="39.94" y="82.116302" style="fill: #666666; stroke: #666666; stroke-width: 0.8"/>
      </g>
     </g>
     <g id="text_17">
      <!-- 2.50 -->
      <g style="fill: #666666" transform="translate(10.674375 85.915521) scale(0.1 -0.1)">
       <use xlink:href="#DejaVuSans-32"/>
       <use xlink:href="#DejaVuSans-2e" transform="translate(63.623047 0)"/>
       <use xlink:href="#DejaVuSans-35" transform="translate(95.410156 0)"/>
       <use xlink:href="#DejaVuSans-30" transform="translate(159.033203 0)"/>
      </g>
     </g>
    </g>
   </g>
   <g id="line2d_33">
    <path d="M 41.08541 61.245258 
L 42.23082 160.517405 
L 43.37623 205.931681 
L 44.521639 233.569977 
L 45.667049 255.33497 
L 46.812459 270.383339 
L 50.248689 300.403375 
L 51.394098 306.352633 
L 52.539508 313.442488 
L 53.684918 318.783881 
L 54.830328 322.813283 
L 55.975738 329.272174 
L 57.121148 332.938299 
L 58.266557 335.268168 
L 59.411967 338.945976 
L 60.557377 340.558982 
L 61.702787 344.54589 
L 62.848197 347.606746 
L 63.993607 347.051264 
L 65.139016 350.995342 
L 66.284426 352.781386 
L 67.429836 356.262446 
L 69.720656 358.29857 
L 70.866066 361.241295 
L 72.011476 361.260684 
L 73.156885 363.752025 
L 74.302295 364.864027 
L 75.447705 366.541226 
L 76.593115 365.343811 
L 77.738525 368.489325 
L 78.883935 370.746518 
L 80.029344 369.977659 
L 81.174754 373.159166 
L 82.320164 372.762152 
L 83.465574 375.989771 
L 84.610984 376.329352 
L 85.756394 375.724397 
L 86.901803 376.088235 
L 88.047213 377.550293 
L 90.338033 379.715174 
L 91.483443 381.71634 
L 92.628853 381.721473 
L 93.774262 382.211885 
L 94.919672 381.398616 
L 96.065082 382.83631 
L 97.210492 385.672569 
L 98.355902 384.219369 
L 99.501312 385.595329 
L 100.646721 386.52897 
L 101.792131 385.836715 
L 102.937541 386.013745 
L 104.082951 386.704115 
L 105.228361 389.081237 
L 106.373771 389.101908 
L 108.66459 388.874839 
L 109.81 390.877968 
L 110.95541 391.089093 
L 112.10082 392.525196 
L 113.24623 393.104363 
L 114.39164 391.536047 
L 115.537049 391.449338 
L 116.682459 393.360806 
L 117.827869 392.713301 
L 118.973279 393.805477 
L 120.118689 395.260367 
L 121.264099 394.656708 
L 122.409508 393.871591 
L 123.554918 395.879256 
L 124.700328 394.646921 
L 125.845738 399.297646 
L 126.991148 396.175849 
L 128.136558 397.299845 
L 129.281967 398.0619 
L 130.427377 398.026382 
L 131.572787 400.499708 
L 132.718197 399.049368 
L 133.863607 398.8059 
L 135.009017 398.002678 
L 136.154427 400.367672 
L 137.299836 400.990076 
L 138.445246 400.999279 
L 139.590656 399.872586 
L 140.736066 400.781249 
L 141.881476 401.961824 
L 143.026886 401.201351 
L 144.172295 401.922089 
L 145.317705 401.327017 
L 146.463115 403.316225 
L 147.608525 403.218691 
L 148.753935 403.563814 
L 149.899345 404.930199 
L 151.044754 403.409852 
L 152.190164 403.713092 
L 154.480984 404.741562 
L 155.626394 406.200331 
L 156.771804 405.44033 
L 157.917213 405.610419 
L 159.062623 406.324451 
L 161.353443 405.578447 
L 162.498853 404.30567 
L 163.644263 406.28189 
L 164.789672 406.42775 
L 165.935082 406.993217 
L 167.080492 409.095757 
L 168.225902 407.390659 
L 169.371312 407.521294 
L 170.516722 405.290663 
L 171.662132 408.208392 
L 172.807541 407.916506 
L 173.952951 408.467417 
L 175.098361 409.828123 
L 176.243771 407.678008 
L 177.389181 408.277256 
L 178.534591 408.436328 
L 179.68 410.364399 
L 180.82541 408.204344 
L 181.97082 411.252365 
L 183.11623 409.417334 
L 184.26164 407.97233 
L 185.40705 411.397221 
L 186.552459 411.149002 
L 187.697869 410.65266 
L 188.843279 411.446608 
L 189.988689 412.690801 
L 191.134099 411.217993 
L 192.279509 412.543645 
L 193.424918 411.152009 
L 194.570328 412.740985 
L 195.715738 410.395288 
L 196.861148 412.938118 
L 198.006558 412.633836 
L 199.151968 411.641183 
L 200.297378 413.884924 
L 201.442787 412.560379 
L 202.588197 411.619804 
L 203.733607 414.744929 
L 204.879017 413.075819 
L 206.024427 413.153425 
L 207.169837 412.774701 
L 208.315246 414.981633 
L 209.460656 415.21652 
L 210.606066 413.488919 
L 211.751476 413.865041 
L 212.896886 414.058072 
L 214.042296 414.104711 
L 215.187705 415.292953 
L 216.333115 414.505733 
L 217.478525 414.584241 
L 218.623935 415.749238 
L 219.769345 413.259923 
L 220.914755 414.813992 
L 222.060164 416.645039 
L 223.205574 414.897747 
L 224.350984 416.691916 
L 225.496394 415.029965 
L 226.641804 414.782523 
L 227.787214 416.927684 
L 228.932623 415.239675 
L 230.078033 415.927872 
L 231.223443 415.637592 
L 232.368853 414.66865 
L 233.514263 416.974331 
L 234.659673 417.615314 
L 235.805083 417.875912 
L 236.950492 417.922204 
L 238.095902 417.290363 
L 239.241312 416.98386 
L 240.386722 417.16793 
L 241.532132 416.724872 
L 242.677542 417.67048 
L 243.822951 416.319278 
L 244.968361 418.183582 
L 246.113771 415.258083 
L 247.259181 417.503794 
L 248.404591 419.125786 
L 249.550001 419.454652 
L 250.69541 417.983299 
L 251.84082 418.81167 
L 252.98623 417.965803 
L 254.13164 418.318866 
L 255.27705 418.982003 
L 257.567869 420.662178 
L 258.713279 419.679079 
L 259.858689 418.456349 
L 261.004099 419.213608 
L 262.149509 420.802579 
L 263.294919 419.459486 
L 264.440329 419.344488 
L 265.585738 420.737135 
L 266.731148 419.780187 
L 267.876558 419.97633 
L 269.021968 421.297634 
L 270.167378 419.866972 
L 271.312788 419.757095 
L 272.458197 419.321448 
L 273.603607 419.446729 
L 274.749017 422.01745 
L 275.894427 421.663772 
L 277.039837 420.277939 
L 279.330656 420.463163 
L 280.476066 417.156213 
L 281.621476 420.589071 
L 282.766886 420.104562 
L 283.912296 420.379325 
L 285.057706 420.776757 
L 286.203115 421.849783 
L 287.348525 420.844063 
L 288.493935 422.491399 
L 289.639345 422.032607 
L 290.784755 422.372138 
L 291.930165 421.880437 
L 293.075574 419.692227 
L 294.220984 424.035337 
L 295.366394 421.519455 
L 296.511804 423.944169 
L 297.657214 422.86578 
L 298.802624 421.359105 
L 301.093443 423.729271 
L 302.238853 423.441407 
L 303.384263 422.101733 
L 304.529673 423.61766 
L 305.675083 422.733271 
L 306.820493 422.986526 
L 307.965902 423.775204 
L 309.111312 421.006909 
L 310.256722 422.62235 
L 311.402132 425.407351 
L 312.547542 423.232286 
L 313.692952 424.17249 
L 314.838361 422.70664 
L 315.983771 424.457218 
L 318.274591 423.285869 
L 319.420001 422.992795 
L 320.565411 425.170435 
L 321.71082 424.362264 
L 324.00164 424.83254 
L 325.14705 422.441781 
L 326.29246 423.898892 
L 327.43787 425.666574 
L 328.58328 423.519033 
L 329.728689 422.363346 
L 330.874099 423.54315 
L 332.019509 426.211415 
L 333.164919 425.226819 
L 334.310329 423.512758 
L 335.455739 425.59209 
L 336.601148 424.487889 
L 337.746558 424.218983 
L 338.891968 426.019208 
L 340.037378 425.203185 
L 341.182788 428.5099 
L 342.328198 426.319044 
L 343.473607 425.599287 
L 344.619017 426.678487 
L 345.764427 423.811156 
L 346.909837 426.994762 
L 348.055247 426.051366 
L 349.200657 425.534603 
L 350.346066 424.264249 
L 351.491476 427.257712 
L 352.636886 424.674676 
L 353.782296 425.911793 
L 354.927706 426.984456 
L 356.073116 425.576969 
L 357.218525 425.90699 
L 358.363935 426.782725 
L 359.509345 426.162019 
L 360.654755 426.686688 
L 362.945575 425.741683 
L 364.090985 424.861257 
L 365.236394 427.796696 
L 366.381804 424.424026 
L 367.527214 428.643201 
L 368.672624 426.869176 
L 369.818034 426.174427 
L 370.963444 426.545948 
L 372.108853 427.524444 
L 373.254263 427.160315 
L 374.399673 427.508138 
L 375.545083 427.663727 
L 376.690493 426.255672 
L 377.835903 426.814174 
L 378.981312 427.939924 
L 380.126722 426.374713 
L 381.272132 427.033948 
L 382.417542 426.575007 
L 383.562952 426.81718 
L 384.708362 428.357777 
L 385.853771 428.139132 
L 386.999181 426.862603 
L 388.144591 427.056597 
L 389.290001 427.753718 
L 390.435411 427.667035 
L 391.580821 426.539331 
L 392.726231 428.496284 
L 393.87164 427.390156 
L 395.01705 428.206226 
L 396.16246 428.274853 
L 397.30787 426.986971 
L 398.45328 427.317707 
L 399.59869 427.381981 
L 400.744099 426.932944 
L 401.889509 428.292564 
L 403.034919 427.671003 
L 404.180329 428.732575 
L 405.325739 428.137562 
L 406.471149 428.650952 
L 407.616558 428.470226 
L 408.761968 428.013309 
L 409.907378 429.502622 
L 411.052788 426.588765 
L 412.198198 429.793446 
L 413.343608 430.054897 
L 414.489017 427.688538 
L 415.634427 428.110734 
L 416.779837 428.330183 
L 417.925247 428.374519 
L 419.070657 429.075243 
L 420.216067 430.024642 
L 421.361476 429.081838 
L 422.506886 429.896379 
L 423.652296 428.261546 
L 424.797706 429.451643 
L 425.943116 430.189701 
L 427.088526 429.723416 
L 428.233936 429.022526 
L 429.379345 430.063663 
L 430.524755 430.373333 
L 431.670165 429.334222 
L 432.815575 429.378993 
L 433.960985 430.190521 
L 435.106395 430.199661 
L 436.251804 429.529247 
L 437.397214 431.285396 
L 438.542624 431.289183 
L 439.688034 430.632547 
L 441.978854 429.673792 
L 443.124263 428.532508 
L 444.269673 429.20574 
L 445.415083 430.286002 
L 446.560493 430.186411 
L 447.705903 431.231618 
L 448.851313 430.273192 
L 449.996722 430.591662 
L 451.142132 430.01234 
L 452.287542 431.226344 
L 453.432952 429.89806 
L 454.578362 428.90888 
L 455.723772 430.622912 
L 456.869182 430.145509 
L 458.014591 429.894037 
L 459.160001 431.0474 
L 460.305411 430.452573 
L 461.450821 430.709682 
L 462.596231 430.664632 
L 463.741641 431.59265 
L 464.88705 430.821839 
L 466.03246 430.380822 
L 467.17787 429.451234 
L 468.32328 429.9929 
L 469.46869 428.817842 
L 470.6141 431.832216 
L 471.759509 430.202959 
L 472.904919 430.944727 
L 474.050329 428.94168 
L 475.195739 432.034446 
L 476.341149 432.106207 
L 477.486559 431.901106 
L 478.631968 433.492924 
L 479.777378 431.904925 
L 480.922788 432.18175 
L 482.068198 431.294656 
L 483.213608 431.138701 
L 484.359018 429.615025 
L 485.504427 430.596301 
L 486.649837 432.190005 
L 487.795247 432.555733 
L 488.940657 431.178215 
L 490.086067 433.061535 
L 491.231477 429.89022 
L 492.376887 430.591949 
L 493.522296 432.308341 
L 494.667706 433.612554 
L 495.813116 430.526937 
L 496.958526 432.059439 
L 498.103936 430.719526 
L 499.249346 433.640507 
L 500.394755 432.664164 
L 501.540165 432.085257 
L 502.685575 432.079385 
L 503.830985 432.622009 
L 504.976395 431.565873 
L 506.121805 433.323465 
L 507.267214 432.417451 
L 508.412624 432.18598 
L 509.558034 431.820516 
L 510.703444 431.655494 
L 511.848854 433.56092 
L 512.994264 434.013384 
L 514.139673 431.185634 
L 516.430493 433.319229 
L 517.575903 431.012628 
L 518.721313 432.509241 
L 519.866723 431.460996 
L 521.012133 432.627765 
L 522.157542 430.632704 
L 523.302952 430.978144 
L 524.448362 433.053396 
L 525.593772 431.844798 
L 526.739182 432.211066 
L 527.884592 431.508605 
L 529.030001 433.918669 
L 530.175411 432.271323 
L 531.320821 431.92582 
L 532.466231 434.827995 
L 533.611641 434.275455 
L 534.757051 435.180405 
L 535.90246 433.411493 
L 537.04787 432.439647 
L 538.19328 431.67352 
L 539.33869 433.160782 
L 540.4841 431.610681 
L 541.62951 434.707051 
L 542.774919 435.068836 
L 543.920329 433.423404 
L 545.065739 433.008155 
L 546.211149 433.464817 
L 547.356559 435.568914 
L 548.501969 433.586549 
L 549.647378 434.85608 
L 550.792788 432.87777 
L 551.938198 433.218165 
L 553.083608 434.580189 
L 554.229018 434.177983 
L 555.374428 434.764779 
L 557.665247 432.77632 
L 558.810657 434.783831 
L 559.956067 433.297952 
L 561.101477 434.38215 
L 562.246887 434.680472 
L 563.392297 434.012919 
L 564.537706 434.988803 
L 565.683116 434.529042 
L 566.828526 435.21557 
L 567.973936 432.02565 
L 569.119346 434.020697 
L 570.264756 434.799366 
L 571.410165 433.89914 
L 572.555575 434.261481 
L 573.700985 434.402091 
L 574.846395 433.581597 
L 575.991805 433.465443 
L 577.137215 434.806691 
L 578.282624 434.882462 
L 579.428034 434.605742 
L 580.573444 436.69908 
L 581.718854 435.927346 
L 582.864264 433.021923 
L 584.009674 432.767942 
L 585.155084 434.72564 
L 586.300493 433.913989 
L 587.445903 434.213076 
L 588.591313 431.42375 
L 589.736723 433.447605 
L 590.882133 434.746562 
L 592.027543 435.617898 
L 593.172952 436.309207 
L 594.318362 434.494676 
L 595.463772 435.500371 
L 596.609182 436.206704 
L 597.754592 435.445045 
L 598.900002 435.916071 
L 600.045411 433.124844 
L 602.336231 434.906729 
L 603.481641 433.419426 
L 604.627051 434.875325 
L 605.772461 435.85875 
L 606.91787 433.458347 
L 608.06328 434.48801 
L 609.20869 436.120348 
L 610.3541 435.285292 
L 611.49951 436.01033 
L 612.64492 436.55394 
L 613.790329 434.229885 
L 614.935739 433.255703 
L 616.081149 436.651041 
L 617.226559 434.680545 
L 618.371969 435.943111 
L 619.517379 435.803324 
L 620.662789 435.937157 
L 621.808198 436.240282 
L 622.953608 435.3376 
L 624.099018 436.259557 
L 625.244428 435.164385 
L 626.389838 435.517215 
L 627.535248 435.735578 
L 628.680657 436.442539 
L 629.826067 436.13177 
L 630.971477 434.801271 
L 632.116887 435.086316 
L 633.262297 436.617642 
L 634.407707 435.54687 
L 635.553116 434.90862 
L 636.698526 437.399268 
L 637.843936 435.171666 
L 638.989346 436.425182 
L 640.134756 435.194876 
L 641.280166 436.578465 
L 642.425575 437.664414 
L 643.570985 437.509072 
L 644.716395 435.828012 
L 645.861805 435.637612 
L 647.007215 436.847946 
L 648.152625 435.301829 
L 649.298035 437.668853 
L 650.443444 436.069114 
L 651.588854 437.259734 
L 652.734264 436.71505 
L 653.879674 436.02769 
L 655.025084 436.976661 
L 656.170494 436.516629 
L 657.315903 435.124832 
L 658.461313 436.761319 
L 659.606723 435.347263 
L 660.752133 437.372819 
L 661.897543 435.707201 
L 663.042953 434.802923 
L 664.188362 438.811678 
L 665.333772 437.130357 
L 666.479182 435.75525 
L 667.624592 436.573506 
L 668.770002 436.012659 
L 669.915412 437.029369 
L 671.060821 436.349891 
L 672.206231 436.620232 
L 673.351641 435.296192 
L 674.497051 436.249763 
L 675.642461 436.188532 
L 676.787871 436.975111 
L 677.93328 437.075575 
L 679.07869 437.042816 
L 680.2241 436.223937 
L 681.36951 437.077443 
L 682.51492 436.376822 
L 683.66033 434.581647 
L 685.951149 437.07288 
L 687.096559 435.540641 
L 689.387379 438.88475 
L 690.532789 437.858621 
L 691.678199 438.759748 
L 692.823608 437.235332 
L 693.969018 436.881198 
L 695.114428 435.215398 
L 696.259838 436.611997 
L 697.405248 437.190386 
L 698.550658 436.145066 
L 699.696067 439.263416 
L 700.841477 436.794207 
L 701.986887 436.271353 
L 703.132297 438.584005 
L 704.277707 435.935838 
L 706.568526 437.567323 
L 707.713936 436.522019 
L 708.859346 434.876049 
L 710.004756 437.024824 
L 711.150166 436.979007 
L 712.295576 437.721209 
L 713.440986 438.140469 
L 714.586395 436.451198 
L 715.731805 438.189959 
L 716.877215 437.26686 
L 718.022625 437.847555 
L 719.168035 436.894837 
L 720.313445 437.064148 
L 721.458854 436.368705 
L 722.604264 437.965764 
L 723.749674 437.742426 
L 724.895084 438.485402 
L 726.040494 437.962261 
L 727.185904 437.146704 
L 728.331313 436.781074 
L 729.476723 438.511838 
L 730.622133 436.708238 
L 731.767543 436.234176 
L 732.912953 437.214385 
L 734.058363 435.745049 
L 735.203772 438.464744 
L 737.494592 439.529289 
L 738.640002 436.215278 
L 740.930822 437.836222 
L 742.076232 437.514959 
L 743.221641 438.966457 
L 744.367051 435.350321 
L 745.512461 437.729438 
L 746.657871 437.76986 
L 747.803281 437.162419 
L 750.0941 437.713706 
L 751.23951 438.766641 
L 753.53033 436.085302 
L 754.67574 436.651622 
L 755.82115 436.419203 
L 756.966559 438.581865 
L 758.111969 439.088773 
L 759.257379 438.228919 
L 760.402789 438.063787 
L 761.548199 437.026006 
L 762.693609 439.883162 
L 763.839018 436.621867 
L 764.984428 438.359766 
L 766.129838 438.653027 
L 768.420658 439.942256 
L 769.566068 437.438321 
L 770.711477 438.221175 
L 771.856887 439.628616 
L 773.002297 439.65305 
L 774.147707 438.695416 
L 775.293117 436.673135 
L 776.438527 438.656066 
L 777.583937 439.941384 
L 778.729346 438.680034 
L 779.874756 438.72648 
L 781.020166 441.213847 
L 782.165576 438.541884 
L 783.310986 438.740599 
L 784.456396 437.815335 
L 785.601805 436.660302 
L 786.747215 437.414614 
L 787.892625 438.854241 
L 789.038035 439.725824 
L 790.183445 435.997341 
L 791.328855 438.575967 
L 793.619674 438.697851 
L 794.765084 438.490033 
L 797.055904 439.312657 
L 798.201314 439.303698 
L 799.346723 438.798498 
L 800.492133 439.336751 
L 801.637543 439.527484 
L 802.782953 438.711425 
L 803.928363 439.097573 
L 805.073773 437.324582 
L 806.219183 441.573492 
L 807.364592 437.780694 
L 808.510002 437.641282 
L 809.655412 441.039333 
L 810.800822 439.294937 
L 811.946232 439.342093 
L 813.091642 440.414926 
L 814.237051 439.791535 
L 815.382461 440.148137 
L 816.527871 437.250737 
L 817.673281 438.099936 
L 818.818691 437.775582 
L 819.964101 438.353128 
L 821.10951 440.255236 
L 822.25492 439.657212 
L 823.40033 438.642313 
L 824.54574 440.402549 
L 825.69115 438.449523 
L 826.83656 439.437663 
L 827.981969 439.591984 
L 829.127379 438.503709 
L 830.272789 438.792575 
L 831.418199 439.629775 
L 832.563609 438.098943 
L 833.709019 440.397447 
L 834.854428 438.686616 
L 835.999838 438.726993 
L 837.145248 439.663216 
L 838.290658 439.032984 
L 839.436068 440.656058 
L 840.581478 438.458181 
L 841.726888 439.604317 
L 841.726888 439.604317 
" clip-path="url(#p4972742c59)" style="fill: none; stroke: #5c96d6; stroke-width: 1.5; stroke-linecap: square"/>
   </g>
   <g id="patch_3">
    <path d="M 39.94 461.93875 
L 39.94 40.88 
" style="fill: none; stroke: #dddddd; stroke-width: 0.8; stroke-linejoin: miter; stroke-linecap: square"/>
   </g>
   <g id="patch_4">
    <path d="M 39.94 461.93875 
L 853.180986 461.93875 
" style="fill: none; stroke: #dddddd; stroke-width: 0.8; stroke-linejoin: miter; stroke-linecap: square"/>
   </g>
   <g id="text_18">
    <!-- train/loss -->
    <g style="fill: #333333" transform="translate(414.84393 20.88) scale(0.12 -0.12)">
     <defs>
      <path id="DejaVuSans-Bold-74" d="M 1759 4494 
L 1759 3500 
L 2913 3500 
L 2913 2700 
L 1759 2700 
L 1759 1216 
Q 1759 972 1856 886 
Q 1953 800 2241 800 
L 2816 800 
L 2816 0 
L 1856 0 
Q 1194 0 917 276 
Q 641 553 641 1216 
L 641 2700 
L 84 2700 
L 84 3500 
L 641 3500 
L 641 4494 
L 1759 4494 
z
" transform="scale(0.015625)"/>
      <path id="DejaVuSans-Bold-72" d="M 3138 2547 
Q 2991 2616 2845 2648 
Q 2700 2681 2553 2681 
Q 2122 2681 1889 2404 
Q 1656 2128 1656 1613 
L 1656 0 
L 538 0 
L 538 3500 
L 1656 3500 
L 1656 2925 
Q 1872 3269 2151 3426 
Q 2431 3584 2822 3584 
Q 2878 3584 2943 3579 
Q 3009 3575 3134 3559 
L 3138 2547 
z
" transform="scale(0.015625)"/>
      <path id="DejaVuSans-Bold-61" d="M 2106 1575 
Q 1756 1575 1579 1456 
Q 1403 1338 1403 1106 
Q 1403 894 1545 773 
Q 1688 653 1941 653 
Q 2256 653 2472 879 
Q 2688 1106 2688 1447 
L 2688 1575 
L 2106 1575 
z
M 3816 1997 
L 3816 0 
L 2688 0 
L 2688 519 
Q 2463 200 2181 54 
Q 1900 -91 1497 -91 
Q 953 -91 614 226 
Q 275 544 275 1050 
Q 275 1666 698 1953 
Q 1122 2241 2028 2241 
L 2688 2241 
L 2688 2328 
Q 2688 2594 2478 2717 
Q 2269 2841 1825 2841 
Q 1466 2841 1156 2769 
Q 847 2697 581 2553 
L 581 3406 
Q 941 3494 1303 3539 
Q 1666 3584 2028 3584 
Q 2975 3584 3395 3211 
Q 3816 2838 3816 1997 
z
" transform="scale(0.015625)"/>
      <path id="DejaVuSans-Bold-69" d="M 538 3500 
L 1656 3500 
L 1656 0 
L 538 0 
L 538 3500 
z
M 538 4863 
L 1656 4863 
L 1656 3950 
L 538 3950 
L 538 4863 
z
" transform="scale(0.015625)"/>
      <path id="DejaVuSans-Bold-6e" d="M 4056 2131 
L 4056 0 
L 2931 0 
L 2931 347 
L 2931 1631 
Q 2931 2084 2911 2256 
Q 2891 2428 2841 2509 
Q 2775 2619 2662 2680 
Q 2550 2741 2406 2741 
Q 2056 2741 1856 2470 
Q 1656 2200 1656 1722 
L 1656 0 
L 538 0 
L 538 3500 
L 1656 3500 
L 1656 2988 
Q 1909 3294 2193 3439 
Q 2478 3584 2822 3584 
Q 3428 3584 3742 3212 
Q 4056 2841 4056 2131 
z
" transform="scale(0.015625)"/>
      <path id="DejaVuSans-Bold-2f" d="M 1644 4666 
L 2338 4666 
L 691 -594 
L 0 -594 
L 1644 4666 
z
" transform="scale(0.015625)"/>
      <path id="DejaVuSans-Bold-6c" d="M 538 4863 
L 1656 4863 
L 1656 0 
L 538 0 
L 538 4863 
z
" transform="scale(0.015625)"/>
      <path id="DejaVuSans-Bold-6f" d="M 2203 2784 
Q 1831 2784 1636 2517 
Q 1441 2250 1441 1747 
Q 1441 1244 1636 976 
Q 1831 709 2203 709 
Q 2569 709 2762 976 
Q 2956 1244 2956 1747 
Q 2956 2250 2762 2517 
Q 2569 2784 2203 2784 
z
M 2203 3584 
Q 3106 3584 3614 3096 
Q 4122 2609 4122 1747 
Q 4122 884 3614 396 
Q 3106 -91 2203 -91 
Q 1297 -91 786 396 
Q 275 884 275 1747 
Q 275 2609 786 3096 
Q 1297 3584 2203 3584 
z
" transform="scale(0.015625)"/>
      <path id="DejaVuSans-Bold-73" d="M 3272 3391 
L 3272 2541 
Q 2913 2691 2578 2766 
Q 2244 2841 1947 2841 
Q 1628 2841 1473 2761 
Q 1319 2681 1319 2516 
Q 1319 2381 1436 2309 
Q 1553 2238 1856 2203 
L 2053 2175 
Q 2913 2066 3209 1816 
Q 3506 1566 3506 1031 
Q 3506 472 3093 190 
Q 2681 -91 1863 -91 
Q 1516 -91 1145 -36 
Q 775 19 384 128 
L 384 978 
Q 719 816 1070 734 
Q 1422 653 1784 653 
Q 2113 653 2278 743 
Q 2444 834 2444 1013 
Q 2444 1163 2330 1236 
Q 2216 1309 1875 1350 
L 1678 1375 
Q 931 1469 631 1722 
Q 331 1975 331 2491 
Q 331 3047 712 3315 
Q 1094 3584 1881 3584 
Q 2191 3584 2531 3537 
Q 2872 3491 3272 3391 
z
" transform="scale(0.015625)"/>
     </defs>
     <use xlink:href="#DejaVuSans-Bold-74"/>
     <use xlink:href="#DejaVuSans-Bold-72" transform="translate(47.802734 0)"/>
     <use xlink:href="#DejaVuSans-Bold-61" transform="translate(97.119141 0)"/>
     <use xlink:href="#DejaVuSans-Bold-69" transform="translate(164.599609 0)"/>
     <use xlink:href="#DejaVuSans-Bold-6e" transform="translate(198.876953 0)"/>
     <use xlink:href="#DejaVuSans-Bold-2f" transform="translate(270.068359 0)"/>
     <use xlink:href="#DejaVuSans-Bold-6c" transform="translate(306.591797 0)"/>
     <use xlink:href="#DejaVuSans-Bold-6f" transform="translate(340.869141 0)"/>
     <use xlink:href="#DejaVuSans-Bold-73" transform="translate(409.570312 0)"/>
     <use xlink:href="#DejaVuSans-Bold-73" transform="translate(469.091797 0)"/>
    </g>
   </g>
   <g id="legend_1">
    <g id="patch_5">
     <path d="M 579.537392 66.040625 
L 848.680986 66.040625 
Q 853.180986 66.040625 853.180986 61.540625 
L 853.180986 45.38 
Q 853.180986 40.88 848.680986 40.88 
L 579.537392 40.88 
Q 575.037392 40.88 575.037392 45.38 
L 575.037392 61.540625 
Q 575.037392 66.040625 579.537392 66.040625 
z
" style="fill: #ffffff; opacity: 0.8; stroke: #dddddd; stroke-linejoin: miter"/>
    </g>
    <g id="line2d_34">
     <path d="M 583.137392 52.668594 
L 592.137392 52.668594 
L 601.137392 52.668594 
" style="fill: none; stroke: #5c96d6; stroke-width: 1.5; stroke-linecap: square"/>
    </g>
    <g id="text_19">
     <!-- 700: 0.8136 test_kaggle-mistral-v0.3-qlora train/loss -->
     <g transform="translate(608.337392 55.818594) scale(0.09 -0.09)">
      <defs>
       <path id="DejaVuSans-3a" d="M 750 794 
L 1409 794 
L 1409 0 
L 750 0 
L 750 794 
z
M 750 3309 
L 1409 3309 
L 1409 2516 
L 750 2516 
L 750 3309 
z
" transform="scale(0.015625)"/>
       <path id="DejaVuSans-20" transform="scale(0.015625)"/>
       <path id="DejaVuSans-38" d="M 2034 2216 
Q 1584 2216 1326 1975 
Q 1069 1734 1069 1313 
Q 1069 891 1326 650 
Q 1584 409 2034 409 
Q 2484 409 2743 651 
Q 3003 894 3003 1313 
Q 3003 1734 2745 1975 
Q 2488 2216 2034 2216 
z
M 1403 2484 
Q 997 2584 770 2862 
Q 544 3141 544 3541 
Q 544 4100 942 4425 
Q 1341 4750 2034 4750 
Q 2731 4750 3128 4425 
Q 3525 4100 3525 3541 
Q 3525 3141 3298 2862 
Q 3072 2584 2669 2484 
Q 3125 2378 3379 2068 
Q 3634 1759 3634 1313 
Q 3634 634 3220 271 
Q 2806 -91 2034 -91 
Q 1263 -91 848 271 
Q 434 634 434 1313 
Q 434 1759 690 2068 
Q 947 2378 1403 2484 
z
M 1172 3481 
Q 1172 3119 1398 2916 
Q 1625 2713 2034 2713 
Q 2441 2713 2670 2916 
Q 2900 3119 2900 3481 
Q 2900 3844 2670 4047 
Q 2441 4250 2034 4250 
Q 1625 4250 1398 4047 
Q 1172 3844 1172 3481 
z
" transform="scale(0.015625)"/>
       <path id="DejaVuSans-6b" d="M 581 4863 
L 1159 4863 
L 1159 1991 
L 2875 3500 
L 3609 3500 
L 1753 1863 
L 3688 0 
L 2938 0 
L 1159 1709 
L 1159 0 
L 581 0 
L 581 4863 
z
" transform="scale(0.015625)"/>
       <path id="DejaVuSans-2d" d="M 313 2009 
L 1997 2009 
L 1997 1497 
L 313 1497 
L 313 2009 
z
" transform="scale(0.015625)"/>
       <path id="DejaVuSans-6d" d="M 3328 2828 
Q 3544 3216 3844 3400 
Q 4144 3584 4550 3584 
Q 5097 3584 5394 3201 
Q 5691 2819 5691 2113 
L 5691 0 
L 5113 0 
L 5113 2094 
Q 5113 2597 4934 2840 
Q 4756 3084 4391 3084 
Q 3944 3084 3684 2787 
Q 3425 2491 3425 1978 
L 3425 0 
L 2847 0 
L 2847 2094 
Q 2847 2600 2669 2842 
Q 2491 3084 2119 3084 
Q 1678 3084 1418 2786 
Q 1159 2488 1159 1978 
L 1159 0 
L 581 0 
L 581 3500 
L 1159 3500 
L 1159 2956 
Q 1356 3278 1631 3431 
Q 1906 3584 2284 3584 
Q 2666 3584 2933 3390 
Q 3200 3197 3328 2828 
z
" transform="scale(0.015625)"/>
       <path id="DejaVuSans-76" d="M 191 3500 
L 800 3500 
L 1894 563 
L 2988 3500 
L 3597 3500 
L 2284 0 
L 1503 0 
L 191 3500 
z
" transform="scale(0.015625)"/>
       <path id="DejaVuSans-71" d="M 947 1747 
Q 947 1113 1208 752 
Q 1469 391 1925 391 
Q 2381 391 2643 752 
Q 2906 1113 2906 1747 
Q 2906 2381 2643 2742 
Q 2381 3103 1925 3103 
Q 1469 3103 1208 2742 
Q 947 2381 947 1747 
z
M 2906 525 
Q 2725 213 2448 61 
Q 2172 -91 1784 -91 
Q 1150 -91 751 415 
Q 353 922 353 1747 
Q 353 2572 751 3078 
Q 1150 3584 1784 3584 
Q 2172 3584 2448 3432 
Q 2725 3281 2906 2969 
L 2906 3500 
L 3481 3500 
L 3481 -1331 
L 2906 -1331 
L 2906 525 
z
" transform="scale(0.015625)"/>
      </defs>
      <use xlink:href="#DejaVuSans-37"/>
      <use xlink:href="#DejaVuSans-30" transform="translate(63.623047 0)"/>
      <use xlink:href="#DejaVuSans-30" transform="translate(127.246094 0)"/>
      <use xlink:href="#DejaVuSans-3a" transform="translate(190.869141 0)"/>
      <use xlink:href="#DejaVuSans-20" transform="translate(224.560547 0)"/>
      <use xlink:href="#DejaVuSans-30" transform="translate(256.347656 0)"/>
      <use xlink:href="#DejaVuSans-2e" transform="translate(319.970703 0)"/>
      <use xlink:href="#DejaVuSans-38" transform="translate(351.757812 0)"/>
      <use xlink:href="#DejaVuSans-31" transform="translate(415.380859 0)"/>
      <use xlink:href="#DejaVuSans-33" transform="translate(479.003906 0)"/>
      <use xlink:href="#DejaVuSans-36" transform="translate(542.626953 0)"/>
      <use xlink:href="#DejaVuSans-20" transform="translate(606.25 0)"/>
      <use xlink:href="#DejaVuSans-74" transform="translate(638.037109 0)"/>
      <use xlink:href="#DejaVuSans-65" transform="translate(677.246094 0)"/>
      <use xlink:href="#DejaVuSans-73" transform="translate(738.769531 0)"/>
      <use xlink:href="#DejaVuSans-74" transform="translate(790.869141 0)"/>
      <use xlink:href="#DejaVuSans-5f" transform="translate(830.078125 0)"/>
      <use xlink:href="#DejaVuSans-6b" transform="translate(880.078125 0)"/>
      <use xlink:href="#DejaVuSans-61" transform="translate(936.238281 0)"/>
      <use xlink:href="#DejaVuSans-67" transform="translate(997.517578 0)"/>
      <use xlink:href="#DejaVuSans-67" transform="translate(1060.994141 0)"/>
      <use xlink:href="#DejaVuSans-6c" transform="translate(1124.470703 0)"/>
      <use xlink:href="#DejaVuSans-65" transform="translate(1152.253906 0)"/>
      <use xlink:href="#DejaVuSans-2d" transform="translate(1213.777344 0)"/>
      <use xlink:href="#DejaVuSans-6d" transform="translate(1249.861328 0)"/>
      <use xlink:href="#DejaVuSans-69" transform="translate(1347.273438 0)"/>
      <use xlink:href="#DejaVuSans-73" transform="translate(1375.056641 0)"/>
      <use xlink:href="#DejaVuSans-74" transform="translate(1427.15625 0)"/>
      <use xlink:href="#DejaVuSans-72" transform="translate(1466.365234 0)"/>
      <use xlink:href="#DejaVuSans-61" transform="translate(1507.478516 0)"/>
      <use xlink:href="#DejaVuSans-6c" transform="translate(1568.757812 0)"/>
      <use xlink:href="#DejaVuSans-2d" transform="translate(1596.541016 0)"/>
      <use xlink:href="#DejaVuSans-76" transform="translate(1630 0)"/>
      <use xlink:href="#DejaVuSans-30" transform="translate(1689.179688 0)"/>
      <use xlink:href="#DejaVuSans-2e" transform="translate(1752.802734 0)"/>
      <use xlink:href="#DejaVuSans-33" transform="translate(1784.589844 0)"/>
      <use xlink:href="#DejaVuSans-2d" transform="translate(1848.212891 0)"/>
      <use xlink:href="#DejaVuSans-71" transform="translate(1884.296875 0)"/>
      <use xlink:href="#DejaVuSans-6c" transform="translate(1947.773438 0)"/>
      <use xlink:href="#DejaVuSans-6f" transform="translate(1975.556641 0)"/>
      <use xlink:href="#DejaVuSans-72" transform="translate(2036.738281 0)"/>
      <use xlink:href="#DejaVuSans-61" transform="translate(2077.851562 0)"/>
      <use xlink:href="#DejaVuSans-20" transform="translate(2139.130859 0)"/>
      <use xlink:href="#DejaVuSans-74" transform="translate(2170.917969 0)"/>
      <use xlink:href="#DejaVuSans-72" transform="translate(2210.126953 0)"/>
      <use xlink:href="#DejaVuSans-61" transform="translate(2251.240234 0)"/>
      <use xlink:href="#DejaVuSans-69" transform="translate(2312.519531 0)"/>
      <use xlink:href="#DejaVuSans-6e" transform="translate(2340.302734 0)"/>
      <use xlink:href="#DejaVuSans-2f" transform="translate(2403.681641 0)"/>
      <use xlink:href="#DejaVuSans-6c" transform="translate(2437.373047 0)"/>
      <use xlink:href="#DejaVuSans-6f" transform="translate(2465.15625 0)"/>
      <use xlink:href="#DejaVuSans-73" transform="translate(2526.337891 0)"/>
      <use xlink:href="#DejaVuSans-73" transform="translate(2578.4375 0)"/>
     </g>
    </g>
   </g>
  </g>
 </g>
 <defs>
  <clipPath id="p4972742c59">
   <rect x="39.94" y="40.88" width="813.240986" height="421.05875"/>
  </clipPath>
 </defs>
</svg>
